<svg xmlns="http://www.w3.org/2000/svg" version="1.1" xmlns:xlink="http://www.w3.org/1999/xlink" width="26" height="26" x="0" y="0" viewBox="0 0 60 60" style="enable-background:new 0 0 512 512" xml:space="preserve" class=""><g><path fill="#70b1fe" d="M1 20V4a3 3 0 0 1 3-3h12.5c.944 0 1.833.445 2.4 1.2l1.2 1.6A3.002 3.002 0 0 0 22.5 5H44a3 3 0 0 1 3 3v8l-1 4z" opacity="1" data-original="#70b1fe" class=""></path><path fill="#e8ecef" d="M43 19v-9a1 1 0 0 0-1-1H6a1 1 0 0 0-1 1v9z" opacity="1" data-original="#e8ecef" class=""></path><path fill="#93d3fe" d="M38 43h6a3 3 0 0 0 3-3V16a3 3 0 0 0-3-3H31.5c-.944 0-1.833.445-2.4 1.2l-1.2 1.6a3.002 3.002 0 0 1-2.4 1.2H4a3 3 0 0 0-3 3v20a3 3 0 0 0 3 3z" opacity="1" data-original="#93d3fe" class=""></path><path fill="#ff4545" d="m36 27 1.497-3.743A2 2 0 0 1 39.354 22h9.292a2 2 0 0 1 1.857 1.257L52 27v2H36zM57 33l-1.858 24.153A2 2 0 0 1 53.148 59H34.852a2 2 0 0 1-1.994-1.847L31 33l1-2h24z" opacity="1" data-original="#717c89" class=""></path><rect width="30" height="6" x="29" y="27" fill="#576470" rx="1" opacity="1" data-original="#576470"></rect><g fill="#161616"><path d="M58 26h-5.323l-1.246-3.115A2.987 2.987 0 0 0 48.645 21h-.646V8c0-2.206-1.794-4-4-4h-21.5a2.012 2.012 0 0 1-1.601-.8l-1.199-1.601A4.019 4.019 0 0 0 16.5 0H4C1.794 0 0 1.794 0 4v3a1 1 0 1 0 2 0V4c0-1.103.897-2 2-2h12.5c.626 0 1.225.299 1.601.8L19.3 4.401a4.02 4.02 0 0 0 3.2 1.6H44c1.103 0 2 .897 2 2v4.556a3.959 3.959 0 0 0-2-.556v-2c0-1.103-.897-2-2-2H6c-1.103 0-2 .897-2 2v6c-.732 0-1.409.212-2 .556v-5.556a1 1 0 1 0-2 0v29c0 2.206 1.794 4 4 4h26.843l1.018 13.229a3.014 3.014 0 0 0 2.991 2.771h18.295a3.013 3.013 0 0 0 2.991-2.77l1.787-23.23h.074c1.103 0 2-.897 2-2v-4c0-1.103-.897-2-2-2zm-8.426-2.372L50.523 26H37.477l.949-2.371a.996.996 0 0 1 .929-.629h9.291c.411 0 .776.247.929.628zM6 10h36v2H31.5a4.018 4.018 0 0 0-3.2 1.601L27.101 15.2a2.01 2.01 0 0 1-1.601.801H6v-6zM4 42c-1.103 0-2-.897-2-2V20c0-1.103.897-2 2-2h21.5a4.018 4.018 0 0 0 3.2-1.601l1.199-1.599a2.01 2.01 0 0 1 1.601-.801H44c1.103 0 2 .897 2 2v5h-6.646c-1.234 0-2.327.74-2.786 1.886l-1.246 3.114h-5.323c-1.103 0-2 .897-2 2v4c0 1.103.897 2 2 2h.074l.616 8H4zm50.145 15.077c-.04.518-.478.923-.997.923H34.853c-.52 0-.957-.405-.997-.924L32.08 34h23.84l-1.776 23.077zM30 32v-4h28l.002 4z" fill="#161616" opacity="1" data-original="#161616" class=""></path><path d="M44 54a1 1 0 0 0 1-1V39a1 1 0 1 0-2 0v14a1 1 0 0 0 1 1zM37.999 54c.023 0 .048 0 .072-.003a.999.999 0 0 0 .926-1.068l-1-14a.99.99 0 0 0-1.068-.926.999.999 0 0 0-.926 1.068l1 14a1 1 0 0 0 .996.929zM49.929 53.997a1 1 0 0 0 1.068-.926l1-14a.998.998 0 0 0-.926-1.068.993.993 0 0 0-1.068.926l-1 14a.998.998 0 0 0 .926 1.068z" fill="#161616" opacity="1" data-original="#161616" class=""></path></g></g></svg>