<svg xmlns="http://www.w3.org/2000/svg" version="1.1" xmlns:xlink="http://www.w3.org/1999/xlink" width="26" height="26" x="0" y="0" viewBox="0 0 24 24" style="enable-background:new 0 0 512 512" xml:space="preserve" fill-rule="evenodd" class=""><g><path d="M22.099 6.429c-2.126 2.126-7.116 7.115-8.333 8.328a2.756 2.756 0 0 1-.912.604c-.976.405-3.357 1.339-4.057 1.386a1.45 1.45 0 0 1-1.544-1.544c.047-.7.981-3.079 1.379-4.051.139-.345.346-.658.609-.92l8.33-8.331a2.153 2.153 0 0 1 3.042 0l1.486 1.486a2.153 2.153 0 0 1 0 3.042zM8.756 15.244c.684-.086 2.683-.92 3.523-1.269a1.249 1.249 0 0 0 .426-.279l.001-.001a8610.44 8610.44 0 0 0 8.332-8.327.65.65 0 0 0 0-.92l-1.486-1.486a.65.65 0 0 0-.92 0l-8.331 8.331a1.24 1.24 0 0 0-.277.419l-.002.004c-.345.842-1.18 2.843-1.266 3.528z" fill="#ffffff" opacity="1" data-original="#000000" class=""></path><path d="M20.118 7.349a.75.75 0 1 1-1.061 1.061L15.59 4.943a.75.75 0 1 1 1.061-1.061zM13.997 13.47a.749.749 0 1 1-1.06 1.06L9.47 11.063a.749.749 0 1 1 1.06-1.06z" fill="#ffffff" opacity="1" data-original="#000000" class=""></path><path d="M8.5 3.25a.75.75 0 0 1 0 1.5H5A2.25 2.25 0 0 0 2.75 7v12A2.25 2.25 0 0 0 5 21.25h13A2.25 2.25 0 0 0 20.25 19v-3.5a.75.75 0 0 1 1.5 0V19A3.752 3.752 0 0 1 18 22.75H5A3.752 3.752 0 0 1 1.25 19V7A3.75 3.75 0 0 1 5 3.25z" fill="#ffffff" opacity="1" data-original="#000000" class=""></path></g></svg>